<svg width="80" height="40" viewBox="0 0 80 40" fill="none" xmlns="http://www.w3.org/2000/svg">
<g clip-path="url(#clip0_635_5437)">
<path fill-rule="evenodd" clip-rule="evenodd" d="M43.7363 25.2085V27.4753C43.7363 39.9018 33.6627 49.9753 21.2363 49.9753H13.7673C1.34087 49.9753 -8.73272 39.9018 -8.73272 27.4753V13.806L43.7363 25.2085ZM29.0195 -8.59305C27.1068 -9.29823 25.072 -9.75098 22.9554 -9.91089L29.0195 -8.59305Z" fill="white"/>
<path fill-rule="evenodd" clip-rule="evenodd" d="M28.4375 21.8839C28.2662 27.7761 23.4359 32.5001 17.5022 32.5001C11.4602 32.5001 6.5622 27.6021 6.5622 21.5601V18.4401C6.5622 18.0024 6.5879 17.5707 6.63788 17.1465L28.4375 21.8839Z" fill="#3D3D3D"/>
</g>
<g clip-path="url(#clip1_635_5437)">
<path fill-rule="evenodd" clip-rule="evenodd" d="M36.2637 25.2085V27.4753C36.2637 39.9018 46.3373 49.9753 58.7637 49.9753H66.2327C78.6591 49.9753 88.7327 39.9018 88.7327 27.4753V13.806L36.2637 25.2085ZM50.9805 -8.59305C52.8932 -9.29823 54.928 -9.75098 57.0446 -9.91089L50.9805 -8.59305Z" fill="white"/>
<path fill-rule="evenodd" clip-rule="evenodd" d="M51.5625 21.8839C51.7338 27.7761 56.5641 32.5001 62.4978 32.5001C68.5398 32.5001 73.4378 27.6021 73.4378 21.5601V18.4401C73.4378 18.0024 73.4121 17.5707 73.3621 17.1465L51.5625 21.8839Z" fill="#3D3D3D"/>
</g>
<defs>
<clipPath id="clip0_635_5437">
<rect width="35" height="40" rx="17.5" transform="matrix(-1 0 0 1 35 0)" fill="white"/>
</clipPath>
<clipPath id="clip1_635_5437">
<rect x="45" width="35" height="40" rx="17.5" fill="white"/>
</clipPath>
</defs>
</svg>
