<svg width="80" height="40" viewBox="0 0 80 40" fill="none" xmlns="http://www.w3.org/2000/svg">
<rect width="35" height="40" rx="17.5" fill="white"/>
<path d="M7.95384 24.5962C6.587 25.9631 6.587 28.1791 7.95384 29.546C9.32067 30.9128 11.5367 30.9128 12.9036 29.546L17.5004 24.9491L22.0973 29.546C23.4641 30.9128 25.6802 30.9128 27.0471 29.546C28.4139 28.1791 28.4139 25.9631 27.0471 24.5962L22.4502 19.9994L27.0457 15.4038C28.4126 14.037 28.4126 11.8209 27.0457 10.4541C25.6789 9.08725 23.4628 9.08725 22.096 10.4541L17.5004 15.0496L12.9049 10.4541C11.5381 9.08725 9.32201 9.08725 7.95518 10.4541C6.58834 11.8209 6.58834 14.037 7.95518 15.4038L12.5507 19.9994L7.95384 24.5962Z" fill="#3D3D3D"/>
<rect x="45" width="35" height="40" rx="17.5" fill="white"/>
<path d="M52.9538 24.5962C51.587 25.9631 51.587 28.1791 52.9538 29.546C54.3207 30.9128 56.5367 30.9128 57.9036 29.546L62.5004 24.9491L67.0973 29.546C68.4641 30.9128 70.6802 30.9128 72.0471 29.546C73.4139 28.1791 73.4139 25.9631 72.0471 24.5962L67.4502 19.9994L72.0457 15.4038C73.4126 14.037 73.4126 11.8209 72.0457 10.4541C70.6789 9.08725 68.4628 9.08725 67.096 10.4541L62.5004 15.0496L57.9049 10.4541C56.5381 9.08725 54.322 9.08725 52.9552 10.4541C51.5883 11.8209 51.5883 14.037 52.9552 15.4038L57.5507 19.9994L52.9538 24.5962Z" fill="#3D3D3D"/>
</svg>
