<svg width="100" height="46" viewBox="0 0 100 46" fill="none" xmlns="http://www.w3.org/2000/svg">
<path d="M8.11504 25.225C8.94447 25.225 9.70792 24.77 9.93413 24.0836C10.2075 23.2584 9.60424 22.4178 8.60516 22.1941L2.37506 20.829C1.37598 20.6054 0.339207 21.099 0.0658741 21.9165C-0.207458 22.7417 0.395761 23.5823 1.39484 23.806L7.62494 25.171C7.78517 25.2096 7.95481 25.225 8.11504 25.225Z" fill="#4D4D4D"/>
<rect x="8.5" y="1.5" width="38" height="43" rx="19" fill="white"/>
<rect x="8.5" y="1.5" width="38" height="43" rx="19" stroke="#4D4D4D" stroke-width="3"/>
<g clip-path="url(#clip0_635_5443)">
<rect x="16.5625" y="10.5" width="21.875" height="25" rx="10.9375" fill="#4D4D4D"/>
<rect width="10" height="90.785" transform="matrix(-0.707107 -0.707107 -0.707107 0.707107 57.1602 -4.53467)" fill="#525252"/>
</g>
<path d="M46.4329 25C45.9099 25 45.4084 24.6909 45.1576 24.1578C44.7994 23.4006 45.0716 22.4657 45.7738 22.0794C45.9529 21.9789 50.1802 19.6919 54.257 22.0948C54.952 22.5043 55.2027 23.447 54.823 24.1887C54.4433 24.9382 53.5763 25.2163 52.8813 24.7991C50.1229 23.1688 47.1136 24.7991 47.085 24.8146C46.8772 24.9305 46.6551 24.9845 46.4329 24.9845V25Z" fill="#4D4D4D"/>
<rect x="53.5" y="1.5" width="38" height="43" rx="19" fill="white"/>
<rect x="53.5" y="1.5" width="38" height="43" rx="19" stroke="#4D4D4D" stroke-width="3"/>
<g clip-path="url(#clip1_635_5443)">
<rect x="61.5625" y="10.5" width="21.875" height="25" rx="10.9375" fill="#4D4D4D"/>
<rect width="10" height="90.785" transform="matrix(-0.707107 -0.707107 -0.707107 0.707107 102.16 -4.53467)" fill="#525252"/>
</g>
<path d="M91.885 25.225C91.0555 25.225 90.2921 24.77 90.0659 24.0836C89.7925 23.2584 90.3958 22.4178 91.3948 22.1941L97.6249 20.829C98.624 20.6054 99.6608 21.099 99.9341 21.9165C100.207 22.7417 99.6042 23.5823 98.6052 23.806L92.3751 25.171C92.2148 25.2096 92.0452 25.225 91.885 25.225Z" fill="#4D4D4D"/>
<defs>
<clipPath id="clip0_635_5443">
<rect x="16.5625" y="10.5" width="21.875" height="25" rx="10.9375" fill="white"/>
</clipPath>
<clipPath id="clip1_635_5443">
<rect x="61.5625" y="10.5" width="21.875" height="25" rx="10.9375" fill="white"/>
</clipPath>
</defs>
</svg>
