<svg width="104" height="42" viewBox="0 0 104 42" fill="none" xmlns="http://www.w3.org/2000/svg">
<path d="M8.11504 23.225C8.94447 23.225 9.70792 22.77 9.93413 22.0836C10.2075 21.2584 9.60424 20.4178 8.60516 20.1941L2.37506 18.829C1.37598 18.6054 0.339207 19.099 0.0658741 19.9165C-0.207458 20.7417 0.395761 21.5823 1.39484 21.806L7.62494 23.171C7.78517 23.2096 7.95481 23.225 8.11504 23.225Z" fill="#4D4D4D"/>
<g clip-path="url(#clip0_635_5447)">
<rect x="11" y="3.5" width="35" height="35" rx="5" fill="#4D4D4D"/>
<rect width="10" height="90.785" transform="matrix(-0.707107 -0.707107 -0.707107 0.707107 53.1602 -6.53467)" fill="#525252"/>
</g>
<rect x="9.5" y="2" width="38" height="38" rx="6.5" stroke="#4D4D4D" stroke-width="3"/>
<path d="M48.4329 23C47.9099 23 47.4084 22.6909 47.1576 22.1578C46.7994 21.4006 47.0716 20.4657 47.7738 20.0794C47.9529 19.9789 52.1802 17.6919 56.257 20.0948C56.952 20.5043 57.2027 21.447 56.823 22.1887C56.4433 22.9382 55.5763 23.2163 54.8813 22.7991C52.1229 21.1688 49.1136 22.7991 49.085 22.8146C48.8772 22.9305 48.6551 22.9845 48.4329 22.9845V23Z" fill="#4D4D4D"/>
<g clip-path="url(#clip1_635_5447)">
<rect x="58" y="3.5" width="35" height="35" rx="5" fill="#4D4D4D"/>
<rect width="10" height="90.785" transform="matrix(-0.707107 -0.707107 -0.707107 0.707107 100.16 -6.53467)" fill="#525252"/>
</g>
<rect x="56.5" y="2" width="38" height="38" rx="6.5" stroke="#4D4D4D" stroke-width="3"/>
<path d="M95.885 23.225C95.0555 23.225 94.2921 22.77 94.0659 22.0836C93.7925 21.2584 94.3958 20.4178 95.3948 20.1941L101.625 18.829C102.624 18.6054 103.661 19.099 103.934 19.9165C104.207 20.7417 103.604 21.5823 102.605 21.806L96.3751 23.171C96.2148 23.2096 96.0452 23.225 95.885 23.225Z" fill="#4D4D4D"/>
<defs>
<clipPath id="clip0_635_5447">
<rect x="11" y="3.5" width="35" height="35" rx="5" fill="white"/>
</clipPath>
<clipPath id="clip1_635_5447">
<rect x="58" y="3.5" width="35" height="35" rx="5" fill="white"/>
</clipPath>
</defs>
</svg>
