<svg width="100" height="43" viewBox="0 0 100 43" fill="none" xmlns="http://www.w3.org/2000/svg">
<path d="M8.11504 7.44985C8.94447 7.44985 9.70792 6.99484 9.93413 6.30845C10.2075 5.48324 9.60424 4.64261 8.60516 4.41896L2.37506 3.0539C1.37598 2.83025 0.339207 3.32383 0.0658741 4.14132C-0.207458 4.96652 0.395761 5.80716 1.39484 6.03081L7.62494 7.39587C7.78517 7.43443 7.95481 7.44985 8.11504 7.44985Z" fill="#4D4D4D"/>
<g clip-path="url(#clip0_635_5449)">
<rect x="10" y="3" width="35" height="17.5" fill="#4D4D4D"/>
<rect width="10" height="90.785" transform="matrix(-0.707107 -0.707107 -0.707107 0.707107 52.1602 -15.7847)" fill="#525252"/>
</g>
<rect x="8.5" y="1.5" width="38" height="20.5" stroke="#4D4D4D" stroke-width="3"/>
<path d="M46.4329 13.75C45.9099 13.75 45.4084 13.4409 45.1576 12.9078C44.7994 12.1506 45.0716 11.2157 45.7738 10.8294C45.9529 10.7289 50.1802 8.44187 54.257 10.8448C54.952 11.2543 55.2027 12.197 54.823 12.9387C54.4433 13.6882 53.5763 13.9663 52.8813 13.5491C50.1229 11.9188 47.1136 13.5491 47.085 13.5646C46.8772 13.6805 46.6551 13.7345 46.4329 13.7345V13.75Z" fill="#4D4D4D"/>
<g clip-path="url(#clip1_635_5449)">
<rect x="55" y="3" width="35" height="17.5" fill="#4D4D4D"/>
<rect width="10" height="90.785" transform="matrix(-0.707107 -0.707107 -0.707107 0.707107 97.1602 -15.7847)" fill="#525252"/>
</g>
<rect x="53.5" y="1.5" width="38" height="20.5" stroke="#4D4D4D" stroke-width="3"/>
<path d="M91.885 7.44985C91.0555 7.44985 90.2921 6.99484 90.0659 6.30845C89.7925 5.48324 90.3958 4.64261 91.3948 4.41896L97.6249 3.0539C98.624 2.83025 99.6608 3.32383 99.9341 4.14132C100.207 4.96652 99.6042 5.80716 98.6052 6.03081L92.3751 7.39587C92.2148 7.43443 92.0452 7.44985 91.885 7.44985Z" fill="#4D4D4D"/>
<defs>
<clipPath id="clip0_635_5449">
<rect x="10" y="3" width="35" height="17.5" fill="white"/>
</clipPath>
<clipPath id="clip1_635_5449">
<rect x="55" y="3" width="35" height="17.5" fill="white"/>
</clipPath>
</defs>
</svg>
