<svg width="100" height="40" viewBox="0 0 100 40" fill="none" xmlns="http://www.w3.org/2000/svg">
<path d="M8.11504 14.225C8.94447 14.225 9.70792 13.77 9.93413 13.0836C10.2075 12.2584 9.60424 11.4178 8.60516 11.1941L2.37506 9.82905C1.37598 9.60539 0.339207 10.099 0.0658741 10.9165C-0.207458 11.7417 0.395761 12.5823 1.39484 12.806L7.62494 14.171C7.78517 14.2096 7.95481 14.225 8.11504 14.225Z" fill="#4D4D4D"/>
<g clip-path="url(#clip0_721_6351)">
<path d="M10 13.25C10 12.1454 10.8954 11.25 12 11.25H43C44.1046 11.25 45 12.1454 45 13.25V13.75C45 22.0343 38.2843 28.75 30 28.75H25C16.7157 28.75 10 22.0343 10 13.75V13.25Z" fill="#4D4D4D"/>
<rect width="10" height="90.785" transform="matrix(-0.707107 -0.707107 -0.707107 0.707107 52.1602 -7.53418)" fill="#525252"/>
</g>
<path d="M12 9.75C10.067 9.75 8.5 11.317 8.5 13.25V13.75C8.5 22.8627 15.8873 30.25 25 30.25H30C39.1127 30.25 46.5 22.8627 46.5 13.75V13.25C46.5 11.317 44.933 9.75 43 9.75H12Z" stroke="#4D4D4D" stroke-width="3"/>
<path d="M46.4329 15.25C45.9099 15.25 45.4084 14.9409 45.1576 14.4078C44.7994 13.6506 45.0716 12.7157 45.7738 12.3294C45.9529 12.2289 50.1802 9.94187 54.257 12.3448C54.952 12.7543 55.2027 13.697 54.823 14.4387C54.4433 15.1882 53.5763 15.4663 52.8813 15.0491C50.1229 13.4188 47.1136 15.0491 47.085 15.0646C46.8772 15.1805 46.6551 15.2345 46.4329 15.2345V15.25Z" fill="#4D4D4D"/>
<g clip-path="url(#clip1_721_6351)">
<path d="M55 13.25C55 12.1454 55.8954 11.25 57 11.25H88C89.1046 11.25 90 12.1454 90 13.25V13.75C90 22.0343 83.2843 28.75 75 28.75H70C61.7157 28.75 55 22.0343 55 13.75V13.25Z" fill="#4D4D4D"/>
<rect width="10" height="90.785" transform="matrix(-0.707107 -0.707107 -0.707107 0.707107 97.1602 -7.53418)" fill="#525252"/>
</g>
<path d="M57 9.75C55.067 9.75 53.5 11.317 53.5 13.25V13.75C53.5 22.8627 60.8873 30.25 70 30.25H75C84.1127 30.25 91.5 22.8627 91.5 13.75V13.25C91.5 11.317 89.933 9.75 88 9.75H57Z" stroke="#4D4D4D" stroke-width="3"/>
<path d="M91.885 16.725C91.0555 16.725 90.2921 16.27 90.0659 15.5836C89.7925 14.7584 90.3958 13.9178 91.3948 13.6941L97.6249 12.329C98.624 12.1054 99.6608 12.599 99.9341 13.4165C100.207 14.2417 99.6042 15.0823 98.6052 15.306L92.3751 16.671C92.2148 16.7096 92.0452 16.725 91.885 16.725Z" fill="#4D4D4D"/>
<defs>
<clipPath id="clip0_721_6351">
<path d="M10 13.25C10 12.1454 10.8954 11.25 12 11.25H43C44.1046 11.25 45 12.1454 45 13.25V13.75C45 22.0343 38.2843 28.75 30 28.75H25C16.7157 28.75 10 22.0343 10 13.75V13.25Z" fill="white"/>
</clipPath>
<clipPath id="clip1_721_6351">
<path d="M55 13.25C55 12.1454 55.8954 11.25 57 11.25H88C89.1046 11.25 90 12.1454 90 13.25V13.75C90 22.0343 83.2843 28.75 75 28.75H70C61.7157 28.75 55 22.0343 55 13.75V13.25Z" fill="white"/>
</clipPath>
</defs>
</svg>
