<svg width="80" height="40" viewBox="0 0 80 40" fill="none" xmlns="http://www.w3.org/2000/svg">
<rect width="35" height="40" rx="17.5" fill="white"/>
<path d="M17.5 29.175L16.05 27.855C10.9 23.185 7.5 20.095 7.5 16.325C7.5 13.235 9.92 10.825 13 10.825C14.74 10.825 16.41 11.635 17.5 12.905C18.59 11.635 20.26 10.825 22 10.825C25.08 10.825 27.5 13.235 27.5 16.325C27.5 20.095 24.1 23.185 18.95 27.855L17.5 29.175Z" fill="#FB344F"/>
<rect x="45" width="35" height="40" rx="17.5" fill="white"/>
<path d="M62.5 29.175L61.05 27.855C55.9 23.185 52.5 20.095 52.5 16.325C52.5 13.235 54.92 10.825 58 10.825C59.74 10.825 61.41 11.635 62.5 12.905C63.59 11.635 65.26 10.825 67 10.825C70.08 10.825 72.5 13.235 72.5 16.325C72.5 20.095 69.1 23.185 63.95 27.855L62.5 29.175Z" fill="#FB344F"/>
</svg>
