<svg width="98" height="40" viewBox="0 0 98 40" fill="none" xmlns="http://www.w3.org/2000/svg">
<path d="M-0.00435638 17.6C-0.00435638 17.1757 0.167351 16.7687 0.472996 16.4686C0.778641 16.1686 1.19319 16 1.62543 16C2.05768 16 2.47223 16.1686 2.77787 16.4686C3.08352 16.7687 3.25523 17.1757 3.25523 17.6C3.26115 22.6904 5.32357 27.5706 8.99003 31.17C12.6565 34.7695 17.6276 36.7942 22.8127 36.8C27.5658 36.7947 32.1226 34.9387 35.4836 31.6392C38.8445 28.3397 40.735 23.8662 40.7404 19.2C40.7356 14.958 39.0169 10.8911 35.9615 7.89155C32.9061 4.892 28.7635 3.20477 24.4425 3.2C20.5536 3.20424 16.8252 4.72273 14.0753 7.42234C11.3255 10.1219 9.7787 13.7822 9.77439 17.6C9.77816 20.9936 11.1531 24.2472 13.5974 26.6469C16.0417 29.0465 19.3559 30.3963 22.8127 30.4C25.8375 30.3968 28.7374 29.2158 30.8762 27.1161C33.015 25.0164 34.218 22.1694 34.2213 19.2C34.2186 16.6547 33.1874 14.2145 31.3541 12.4147C29.5209 10.6149 27.0352 9.60265 24.4425 9.6C23.3724 9.6 22.3127 9.80692 21.324 10.209C20.3354 10.611 19.437 11.2003 18.6803 11.9431C17.9236 12.686 17.3234 13.5679 16.9139 14.5385C16.5043 15.5091 16.2936 16.5494 16.2936 17.6C16.2936 19.2974 16.9804 20.9253 18.203 22.1255C19.4256 23.3257 21.0837 24 22.8127 24C24.1095 24 25.3531 23.4943 26.27 22.5941C27.187 21.6939 27.7021 20.473 27.7021 19.2C27.7021 18.3513 27.3587 17.5374 26.7474 16.9373C26.1361 16.3371 25.307 16 24.4425 16C24.0103 16 23.5957 16.1686 23.2901 16.4686C22.9844 16.7687 22.8127 17.1757 22.8127 17.6C23.245 17.6 23.6595 17.7686 23.9652 18.0686C24.2708 18.3687 24.4425 18.7757 24.4425 19.2C24.4425 19.6243 24.2708 20.0313 23.9652 20.3314C23.6595 20.6314 23.245 20.8 22.8127 20.8C21.9482 20.8 21.1191 20.4629 20.5078 19.8627C19.8966 19.2626 19.5531 18.4487 19.5531 17.6C19.5531 16.327 20.0683 15.1061 20.9852 14.2059C21.9021 13.3057 23.1458 12.8 24.4425 12.8C26.1715 12.8 27.8297 13.4743 29.0523 14.6745C30.2748 15.8748 30.9617 17.5026 30.9617 19.2C30.9617 21.3217 30.1031 23.3566 28.5749 24.8569C27.0467 26.3571 24.974 27.2 22.8127 27.2C20.2201 27.1974 17.7344 26.1851 15.9011 24.3853C14.0678 22.5855 13.0367 20.1453 13.034 17.6C13.0372 14.6306 14.2402 11.7836 16.379 9.68391C18.5178 7.58419 21.4178 6.40318 24.4425 6.4C27.8993 6.40371 31.2135 7.75346 33.6578 10.1531C36.1022 12.5528 37.4771 15.8064 37.4808 19.2C37.4765 23.0178 35.9297 26.6781 33.1799 29.3777C30.43 32.0773 26.7016 33.5958 22.8127 33.6C18.4917 33.5952 14.3491 31.908 11.2937 28.9084C8.23831 25.9089 6.51966 21.842 6.5148 17.6C6.5202 12.9338 8.41074 8.46026 11.7717 5.16077C15.1326 1.86127 19.6894 0.00529099 24.4425 0C29.6277 0.00582123 34.5987 2.03054 38.2652 5.62998C41.9316 9.22942 43.9941 14.1096 44 19.2C43.9941 24.7147 41.7599 30.0019 37.7878 33.9014C33.8157 37.8009 28.4301 39.9942 22.8127 40C16.7632 39.9936 10.9634 37.6316 6.68576 33.4322C2.40813 29.2327 0.00211334 23.5389 -0.00435638 17.6Z" fill="white"/>
<path d="M98.0044 17.6C98.0044 17.1757 97.8326 16.7687 97.527 16.4686C97.2214 16.1686 96.8068 16 96.3746 16C95.9423 16 95.5278 16.1686 95.2221 16.4686C94.9165 16.7687 94.7448 17.1757 94.7448 17.6C94.7388 22.6904 92.6764 27.5706 89.01 31.17C85.3435 34.7695 80.3724 36.7942 75.1873 36.8C70.4342 36.7947 65.8774 34.9387 62.5164 31.6392C59.1555 28.3397 57.265 23.8662 57.2596 19.2C57.2644 14.958 58.9831 10.8911 62.0385 7.89155C65.0939 4.892 69.2365 3.20477 73.5575 3.2C77.4464 3.20424 81.1748 4.72273 83.9247 7.42234C86.6745 10.1219 88.2213 13.7822 88.2256 17.6C88.2218 20.9936 86.8469 24.2472 84.4026 26.6469C81.9583 29.0465 78.6441 30.3963 75.1873 30.4C72.1625 30.3968 69.2626 29.2158 67.1238 27.1161C64.985 25.0164 63.782 22.1694 63.7787 19.2C63.7814 16.6547 64.8126 14.2145 66.6459 12.4147C68.4791 10.6149 70.9648 9.60265 73.5575 9.6C74.6276 9.6 75.6873 9.80692 76.676 10.209C77.6646 10.611 78.563 11.2003 79.3197 11.9431C80.0764 12.686 80.6766 13.5679 81.0861 14.5385C81.4957 15.5091 81.7064 16.5494 81.7064 17.6C81.7064 19.2974 81.0196 20.9253 79.797 22.1255C78.5744 23.3257 76.9163 24 75.1873 24C73.8905 24 72.6469 23.4943 71.73 22.5941C70.813 21.6939 70.2979 20.473 70.2979 19.2C70.2979 18.3513 70.6413 17.5374 71.2526 16.9373C71.8639 16.3371 72.693 16 73.5575 16C73.9897 16 74.4043 16.1686 74.7099 16.4686C75.0156 16.7687 75.1873 17.1757 75.1873 17.6C74.755 17.6 74.3405 17.7686 74.0348 18.0686C73.7292 18.3687 73.5575 18.7757 73.5575 19.2C73.5575 19.6243 73.7292 20.0313 74.0348 20.3314C74.3405 20.6314 74.755 20.8 75.1873 20.8C76.0518 20.8 76.8809 20.4629 77.4922 19.8627C78.1034 19.2626 78.4469 18.4487 78.4469 17.6C78.4469 16.327 77.9317 15.1061 77.0148 14.2059C76.0979 13.3057 74.8542 12.8 73.5575 12.8C71.8285 12.8 70.1703 13.4743 68.9477 14.6745C67.7252 15.8748 67.0383 17.5026 67.0383 19.2C67.0383 21.3217 67.8969 23.3566 69.4251 24.8569C70.9533 26.3571 73.026 27.2 75.1873 27.2C77.7799 27.1974 80.2656 26.1851 82.0989 24.3853C83.9322 22.5855 84.9633 20.1453 84.966 17.6C84.9628 14.6306 83.7598 11.7836 81.621 9.68391C79.4822 7.58419 76.5822 6.40318 73.5575 6.4C70.1007 6.40371 66.7865 7.75346 64.3422 10.1531C61.8978 12.5528 60.5229 15.8064 60.5192 19.2C60.5235 23.0178 62.0703 26.6781 64.8201 29.3777C67.57 32.0773 71.2984 33.5958 75.1873 33.6C79.5083 33.5952 83.6509 31.908 86.7063 28.9084C89.7617 25.9089 91.4803 21.842 91.4852 17.6C91.4798 12.9338 89.5893 8.46026 86.2283 5.16077C82.8674 1.86127 78.3106 0.00529099 73.5575 0C68.3723 0.00582123 63.4013 2.03054 59.7348 5.62998C56.0684 9.22942 54.0059 14.1096 54 19.2C54.0059 24.7147 56.2401 30.0019 60.2122 33.9014C64.1843 37.8009 69.5699 39.9942 75.1873 40C81.2368 39.9936 87.0366 37.6316 91.3142 33.4322C95.5919 29.2327 97.9979 23.5389 98.0044 17.6Z" fill="white"/>
</svg>
