<svg width="61" height="51" viewBox="0 0 61 51" fill="none" xmlns="http://www.w3.org/2000/svg">
<g clip-path="url(#clip0_635_5424)">
<g clip-path="url(#clip1_635_5424)">
<path d="M5.83496 25.9497H55.835C55.835 12.1426 44.6421 0.949707 30.835 0.949707C17.0278 0.949707 5.83496 12.1426 5.83496 25.9497Z" fill="#3D3D3D" fill-opacity="0.5"/>
<path d="M5.83496 26.9497H55.835C55.835 21.4269 51.3578 16.9497 45.835 16.9497H15.835C10.3121 16.9497 5.83496 21.4269 5.83496 26.9497Z" fill="white"/>
<path d="M9.90625 0.949707H51.7637C51.7637 6.47255 47.2865 10.9497 41.7637 10.9497H19.9062C14.3834 10.9497 9.90625 6.47255 9.90625 0.949707Z" fill="white"/>
</g>
</g>
<defs>
<clipPath id="clip0_635_5424">
<rect width="60" height="50" fill="white" transform="translate(0.834961 0.949707)"/>
</clipPath>
<clipPath id="clip1_635_5424">
<path d="M5.83496 25.9497H55.835C55.835 12.1426 44.6421 0.949707 30.835 0.949707C17.0278 0.949707 5.83496 12.1426 5.83496 25.9497Z" fill="white"/>
</clipPath>
</defs>
</svg>
