<svg width="61" height="51" viewBox="0 0 61 51" fill="none" xmlns="http://www.w3.org/2000/svg">
<g clip-path="url(#clip0_721_11696)">
<g clip-path="url(#clip1_721_11696)">
<path d="M5.83496 0.949707H55.835C55.835 14.7568 44.6421 25.9497 30.835 25.9497C17.0278 25.9497 5.83496 14.7568 5.83496 0.949707Z" fill="#3D3D3D" fill-opacity="0.5"/>
<path d="M5.83496 -0.050293H55.835C55.835 5.47255 51.3578 9.94971 45.835 9.94971H15.835C10.3121 9.94971 5.83496 5.47255 5.83496 -0.050293Z" fill="white"/>
<path d="M9.90625 25.9497H51.7637C51.7637 20.4269 47.2865 15.9497 41.7637 15.9497H19.9062C14.3834 15.9497 9.90625 20.4269 9.90625 25.9497Z" fill="white"/>
</g>
</g>
<defs>
<clipPath id="clip0_721_11696">
<rect width="60" height="50" fill="white" transform="translate(0.834961 0.949707)"/>
</clipPath>
<clipPath id="clip1_721_11696">
<path d="M5.83496 0.949707H55.835C55.835 14.7568 44.6421 25.9497 30.835 25.9497C17.0278 25.9497 5.83496 14.7568 5.83496 0.949707Z" fill="white"/>
</clipPath>
</defs>
</svg>
