<svg width="61" height="51" viewBox="0 0 61 51" fill="none" xmlns="http://www.w3.org/2000/svg">
<g clip-path="url(#clip0_635_5423)">
<g clip-path="url(#clip1_635_5423)">
<path d="M5.83496 0.949707H55.835C55.835 14.7568 44.6421 25.9497 30.835 25.9497C17.0278 25.9497 5.83496 14.7568 5.83496 0.949707Z" fill="#3D3D3D" fill-opacity="0.5"/>
<path d="M10.835 0.949707H50.835V3.94971C50.835 6.71113 48.5964 8.94971 45.835 8.94971H15.835C13.0735 8.94971 10.835 6.71113 10.835 3.94971V0.949707Z" fill="white"/>
<path fill-rule="evenodd" clip-rule="evenodd" d="M44.8258 21.6707C41.2188 18.1367 36.2838 15.9497 30.8348 15.9497C25.3857 15.9497 20.4508 18.1367 16.8438 21.6707C20.8368 24.3727 25.6508 25.9497 30.8348 25.9497C36.0177 25.9497 40.8337 24.3727 44.8258 21.6707Z" fill="#FB344F"/>
</g>
</g>
<defs>
<clipPath id="clip0_635_5423">
<rect width="60" height="50" fill="white" transform="translate(0.834961 0.949707)"/>
</clipPath>
<clipPath id="clip1_635_5423">
<path d="M5.83496 0.949707H55.835C55.835 14.7568 44.6421 25.9497 30.835 25.9497C17.0278 25.9497 5.83496 14.7568 5.83496 0.949707Z" fill="white"/>
</clipPath>
</defs>
</svg>
